<?xml version="1.0" encoding="UTF-8"?>
<svg xmlns="http://www.w3.org/2000/svg" width="800" height="400" viewBox="0 0 800 400">
  <path fill="#FFEF38" d="M400 0c220.914 0 400 89.543 400 200S620.914 400 400 400 0 310.457 0 200 179.086 0 400 0z"/>
  <path fill="#003DA5" d="M400 30c198.823 0 360 76.112 360 170S598.823 370 400 370 40 293.888 40 200 201.177 30 400 30z"/>
  <path fill="#FFEF38" d="M400 60c176.731 0 320 62.68 320 140S576.731 340 400 340 80 277.32 80 200s143.269-140 320-140z"/>
  <path fill="#003DA5" d="M400 90c154.64 0 280 49.249 280 110s-125.36 110-280 110S120 260.751 120 200s125.36-110 280-110z"/>
  <path fill="#FFEF38" d="M400 120c132.548 0 240 35.817 240 80s-107.452 80-240 80-240-35.817-240-80 107.452-80 240-80z"/>
  <path fill="#003DA5" d="M400 150c110.457 0 200 22.386 200 50s-89.543 50-200 50-200-22.386-200-50 89.543-50 200-50z"/>
  <path fill="#FFEF38" d="M400 180c88.366 0 160 8.954 160 20s-71.634 20-160 20-160-8.954-160-20 71.634-20 160-20z"/>
</svg>
