<?xml version="1.0" encoding="UTF-8"?>
<svg width="32" height="32" viewBox="0 0 32 32" fill="none" xmlns="http://www.w3.org/2000/svg">
  <rect width="32" height="32" rx="8" fill="url(#paint0_linear)"/>
  <path d="M16.5 7C19.7967 7 22.4733 9.16667 23.1567 12.1667H20.2833C19.7 10.8333 18.2333 9.91667 16.5 9.91667C14.1833 9.91667 12.3333 11.7667 12.3333 14.0833C12.3333 16.4 14.1833 18.25 16.5 18.25C18.2333 18.25 19.7 17.3333 20.2833 16H23.1567C22.4733 19 19.7967 21.1667 16.5 21.1667C12.5767 21.1667 9.41667 18.0067 9.41667 14.0833C9.41667 10.16 12.5767 7 16.5 7Z" fill="white"/>
  <path d="M16.5 11.75C17.88 11.75 19 12.87 19 14.25C19 15.63 17.88 16.75 16.5 16.75C15.12 16.75 14 15.63 14 14.25C14 12.87 15.12 11.75 16.5 11.75Z" fill="#E2E8F0"/>
  <defs>
    <linearGradient id="paint0_linear" x1="0" y1="0" x2="32" y2="32" gradientUnits="userSpaceOnUse">
      <stop stop-color="#9333EA"/>
      <stop offset="1" stop-color="#6B21A8"/>
    </linearGradient>
  </defs>
</svg>
